<?xml version="1.0" encoding="UTF-8"?>
<svg version="1.1" xmlns="http://www.w3.org/2000/svg" width="200" height="200">
<path d="M0 0 C66 0 132 0 200 0 C200 66 200 132 200 200 C134 200 68 200 0 200 C0 134 0 68 0 0 Z " fill="#C2D538" transform="translate(0,0)"/>
<path d="M0 0 C10.32413423 6.95846647 14.44190396 14.98348625 17.33569336 26.95629883 C18.39851457 32.74024835 18.38574619 38.45184983 18.328125 44.31640625 C18.33972656 45.4971875 18.35132813 46.67796875 18.36328125 47.89453125 C18.31560624 62.3241664 15.09173282 74.00182969 5.5390625 84.84765625 C3.953125 86.31640625 3.953125 86.31640625 1.953125 86.31640625 C2.283125 88.29640625 2.613125 90.27640625 2.953125 92.31640625 C4.190625 92.48140625 5.428125 92.64640625 6.703125 92.81640625 C7.39921875 92.90921875 8.0953125 93.00203125 8.8125 93.09765625 C11.25770895 93.38417982 11.25770895 93.38417982 14.953125 93.31640625 C14.953125 98.26640625 14.953125 103.21640625 14.953125 108.31640625 C12.41080158 108.39792969 9.87113298 108.45714341 7.328125 108.50390625 C6.61527344 108.52904297 5.90242188 108.55417969 5.16796875 108.58007812 C0.35897469 108.64625694 -2.92136078 108.05259289 -7.046875 105.31640625 C-8.7265625 103.23046875 -8.7265625 103.23046875 -9.921875 100.94140625 C-10.33179688 100.19117187 -10.74171875 99.4409375 -11.1640625 98.66796875 C-12.1418054 96.06353854 -12.21261805 94.07554058 -12.046875 91.31640625 C-12.79710937 91.37441406 -13.54734375 91.43242188 -14.3203125 91.4921875 C-23.09307887 91.87889635 -29.45155514 90.45307614 -36.08203125 84.484375 C-46.96743998 72.7669605 -48.30418294 58.56765562 -48.421875 43.19140625 C-48.43573242 42.10746582 -48.44958984 41.02352539 -48.46386719 39.90673828 C-48.39266929 27.53891414 -45.78166517 15.08051773 -37.609375 5.44140625 C-27.41710594 -3.01071931 -12.29954445 -6.73658255 0 0 Z " fill="#FEFEF8" transform="translate(135.046875,25.68359375)"/>
<path d="M0 0 C3.46395315 1.45931507 5.3748033 3.28823264 7.8125 6.125 C11.99923937 10.89496674 16.28223778 15.55900858 20.625 20.1875 C21.24608643 20.85217285 21.86717285 21.5168457 22.50708008 22.20166016 C25.50273423 25.3951742 28.52903931 28.54027757 31.6484375 31.61328125 C32.21651123 32.19231201 32.78458496 32.77134277 33.36987305 33.36791992 C34.83858249 34.83838909 36.37491782 36.24055503 37.91796875 37.6328125 C41.145949 42.85329838 40.53258101 47.87525306 40.3125 53.875 C40.28994141 55.0403125 40.26738281 56.205625 40.24414062 57.40625 C40.18541297 60.27215945 40.10332875 63.13540922 40 66 C31.45029678 61.89640678 25.28272584 53.09568874 19.4375 45.8125 C16.62399515 42.41341631 16.62399515 42.41341631 11 38 C11 52.52 11 67.04 11 82 C4.4 82 -2.2 82 -9 82 C-9.33 67.48 -9.66 52.96 -10 38 C-11.98 40.475 -11.98 40.475 -14 43 C-15.64386634 44.68915926 -17.31183067 46.35511706 -19 48 C-26.54982458 55.3700872 -26.54982458 55.3700872 -33.625 63.1875 C-34.40875 64.115625 -35.1925 65.04375 -36 66 C-36.33 66 -36.66 66 -37 66 C-39.77476407 42.86540459 -39.77476407 42.86540459 -33.82421875 34.91015625 C-30.5089928 31.22688816 -26.8458684 27.96480284 -23.05615234 24.77832031 C-20.11545725 22.2349787 -17.56840395 19.41067129 -15 16.5 C-14.14535156 15.56671875 -13.29070312 14.6334375 -12.41015625 13.671875 C-9.40672131 10.34229721 -6.46826272 6.95862822 -3.55859375 3.546875 C-2 2 -2 2 0 2 C0 1.34 0 0.68 0 0 Z " fill="#FEFEF8" transform="translate(98,118)"/>
<path d="M0 0 C6.27 0 12.54 0 19 0 C19 22.44 19 44.88 19 68 C12.73 68 6.46 68 0 68 C0 45.56 0 23.12 0 0 Z " fill="#FEFEFE" transform="translate(58,47)"/>
<path d="M0 0 C3.10673697 0.65457991 4.78527352 2.05787072 6.52856445 4.70800781 C10.30069679 12.40896589 9.74322697 20.8978721 9.72265625 29.2578125 C9.73876953 30.55203125 9.75488281 31.84625 9.77148438 33.1796875 C9.78124621 52.54717104 9.78124621 52.54717104 4.4543457 58.80566406 C1.29818743 61.43372276 -1.29041417 61.06514028 -5.24609375 60.890625 C-7.58984375 60.5078125 -7.58984375 60.5078125 -10.08984375 58.8828125 C-15.49864112 50.31888333 -14.79483891 39.52386255 -14.83984375 29.7578125 C-14.87078125 28.10265625 -14.87078125 28.10265625 -14.90234375 26.4140625 C-14.98645021 8.49938618 -14.98645021 8.49938618 -9.6315918 2.20654297 C-6.48895555 -0.40812437 -3.95215286 -0.17461647 0 0 Z " fill="#C2D63D" transform="translate(122.58984375,39.4921875)"/>
<path d="M0 0 C6.27 0 12.54 0 19 0 C19 6.27 19 12.54 19 19 C12.73 19 6.46 19 0 19 C0 12.73 0 6.46 0 0 Z " fill="#FDFDEF" transform="translate(58,22)"/>
<path d="M0 0 C6.27 0 12.54 0 19 0 C19 22.44 19 44.88 19 68 C12.73 68 6.46 68 0 68 C0 45.56 0 23.12 0 0 Z M1 1 C1 22.45 1 43.9 1 66 C6.28 66 11.56 66 17 66 C17 44.55 17 23.1 17 1 C11.72 1 6.44 1 1 1 Z " fill="#FDFED7" transform="translate(58,47)"/>
<path d="M0 0 C2 2 2 2 2.24291992 4.41430664 C2.23675659 5.8972522 2.23675659 5.8972522 2.23046875 7.41015625 C2.22853516 8.48201172 2.22660156 9.55386719 2.22460938 10.65820312 C2.20624023 12.34333008 2.20624023 12.34333008 2.1875 14.0625 C2.18685547 15.18978516 2.18621094 16.31707031 2.18554688 17.47851562 C2.14013317 25.85986683 2.14013317 25.85986683 1 27 C0.87625 28.155 0.7525 29.31 0.625 30.5 C-0.05978171 36.47044051 -1.87997989 41.88440646 -4.6875 47.1875 C-6.16640295 50.35657776 -6.24683124 52.54436258 -6 56 C-5.34 56 -4.68 56 -4 56 C-3.67 57.65 -3.34 59.3 -3 61 C-4.41433206 61.2236337 -5.83167618 61.42826476 -7.25 61.625 C-8.03890625 61.74101563 -8.8278125 61.85703125 -9.640625 61.9765625 C-12.32152459 62.00319395 -13.72694089 61.36592084 -16 60 C-16.375 57.3125 -16.375 57.3125 -16 54 C-14.58429922 52.78183886 -13.15714088 51.57244631 -11.65625 50.4609375 C-5.91115794 45.39333271 -3.82991901 37.15893992 -2 30 C-1.82960205 29.41871338 -1.6592041 28.83742676 -1.48364258 28.23852539 C-0.88057844 25.44726081 -0.78153258 22.77609238 -0.68359375 19.921875 C-0.64169922 18.76171875 -0.59980469 17.6015625 -0.55664062 16.40625 C-0.49766602 14.59640625 -0.49766602 14.59640625 -0.4375 12.75 C-0.39431641 11.52796875 -0.35113281 10.3059375 -0.30664062 9.046875 C-0.20062645 6.0313608 -0.09856064 3.01576552 0 0 Z " fill="#C3D548" transform="translate(153,58)"/>
<path d="M0 0 C0.72703125 0.42152344 1.4540625 0.84304687 2.203125 1.27734375 C9.57651937 5.29489837 15.60667168 6.97023642 24 7 C23.67 8.32 23.34 9.64 23 11 C22.67 10.67 22.34 10.34 22 10 C19.32941149 9.85884839 16.67567762 9.95752893 14 10 C12.88227753 13.35316742 13.14903194 15.59612776 14 19 C14.33333333 20.33333333 14.66666667 21.66666667 15 23 C10.36103694 19.21309138 6.3506875 15.30424428 2.48046875 10.734375 C0.96268408 8.91019463 0.96268408 8.91019463 -1 7 C0.32 6.34 1.64 5.68 3 5 C3 4.34 3 3.68 3 3 C2.01 3 1.02 3 0 3 C0 2.01 0 1.02 0 0 Z " fill="#C4D545" transform="translate(99,110)"/>
<path d="M0 0 C4.1424367 1.38081223 5.32203099 3.59825558 8 7 C7.01 7.66 6.02 8.32 5 9 C5 9.66 5 10.32 5 11 C4.34 11 3.68 11 3 11 C2.67 21.89 2.34 32.78 2 44 C1.34 44 0.68 44 0 44 C0 29.48 0 14.96 0 0 Z " fill="#CCDA72" transform="translate(109,156)"/>
<path d="M0 0 C0.33 0 0.66 0 1 0 C1 14.85 1 29.7 1 45 C0.34 45 -0.32 45 -1 45 C-1 31.8 -1 18.6 -1 5 C-1.66 5 -2.32 5 -3 5 C-3.103125 5.598125 -3.20625 6.19625 -3.3125 6.8125 C-4.08876455 9.28243264 -5.07088921 10.32251235 -7 12 C-7.99 11.67 -8.98 11.34 -10 11 C-8.71937515 9.2925002 -7.38232443 7.62626404 -6 6 C-5.34 6 -4.68 6 -4 6 C-3.71125 5.38125 -3.4225 4.7625 -3.125 4.125 C-2 2 -2 2 0 0 Z " fill="#C8D76C" transform="translate(88,155)"/>
<path d="M0 0 C0.33 0 0.66 0 1 0 C1 2.64 1 5.28 1 8 C0.34 8 -0.32 8 -1 8 C-0.95528466 12.74715016 -0.88488524 17.49304014 -0.79248047 22.23950195 C-0.76456583 23.84812287 -0.74320746 25.45687343 -0.72900391 27.06567383 C-0.64051667 36.53085812 -0.05949268 44.64807006 3.24902344 53.60473633 C4 56 4 56 3 58 C2.35794098 56.73769949 1.73769139 55.46431307 1.125 54.1875 C0.77695313 53.47980469 0.42890625 52.77210937 0.0703125 52.04296875 C-3.01753663 43.26401082 -3.33967818 34.28677505 -3.3125 25.0625 C-3.32861328 23.97259766 -3.34472656 22.88269531 -3.36132812 21.75976562 C-3.36587282 14.11103647 -2.18213558 7.32414859 0 0 Z " fill="#F9FCCC" transform="translate(90,44)"/>
<path d="M0 0 C2 2 2 2 2.24291992 4.41430664 C2.23675659 5.8972522 2.23675659 5.8972522 2.23046875 7.41015625 C2.22853516 8.48201172 2.22660156 9.55386719 2.22460938 10.65820312 C2.21236328 11.78162109 2.20011719 12.90503906 2.1875 14.0625 C2.18685547 15.18978516 2.18621094 16.31707031 2.18554688 17.47851562 C2.14013317 25.85986683 2.14013317 25.85986683 1 27 C0.87625 28.155 0.7525 29.31 0.625 30.5 C-0.30636105 38.37423429 -2.52471456 44.22875319 -8 50 C-8.66 49.67 -9.32 49.34 -10 49 C-9.67386719 48.46632812 -9.34773437 47.93265625 -9.01171875 47.3828125 C-5.71275039 41.7580228 -3.61198439 36.30634432 -2 30 C-1.82960205 29.41871338 -1.6592041 28.83742676 -1.48364258 28.23852539 C-0.88057844 25.44726081 -0.78153258 22.77609238 -0.68359375 19.921875 C-0.64169922 18.76171875 -0.59980469 17.6015625 -0.55664062 16.40625 C-0.49766602 14.59640625 -0.49766602 14.59640625 -0.4375 12.75 C-0.39431641 11.52796875 -0.35113281 10.3059375 -0.30664062 9.046875 C-0.20062645 6.0313608 -0.09856064 3.01576552 0 0 Z " fill="#C5D55D" transform="translate(153,58)"/>
<path d="M0 0 C0.66 0 1.32 0 2 0 C2.02888146 3.31248187 2.04675799 6.62493167 2.0625 9.9375 C2.07087891 10.88302734 2.07925781 11.82855469 2.08789062 12.80273438 C2.09272461 14.15141602 2.09272461 14.15141602 2.09765625 15.52734375 C2.10551147 16.77632446 2.10551147 16.77632446 2.11352539 18.05053711 C2 20 2 20 1 21 C-0.4887186 21.08669432 -1.981445 21.10703494 -3.47265625 21.09765625 C-4.37177734 21.09443359 -5.27089844 21.09121094 -6.19726562 21.08789062 C-7.14279297 21.07951172 -8.08832031 21.07113281 -9.0625 21.0625 C-10.01189453 21.05798828 -10.96128906 21.05347656 -11.93945312 21.04882812 C-14.29303065 21.0370011 -16.64648477 21.02052025 -19 21 C-19 20.34 -19 19.68 -19 19 C-12.73 19 -6.46 19 0 19 C0 12.73 0 6.46 0 0 Z " fill="#C9D765" transform="translate(77,22)"/>
<path d="M0 0 C0.72703125 0.42152344 1.4540625 0.84304687 2.203125 1.27734375 C9.57651937 5.29489837 15.60667168 6.97023642 24 7 C23.67 8.32 23.34 9.64 23 11 C22.67 10.67 22.34 10.34 22 10 C20.40089201 9.79028092 18.79490754 9.6317933 17.1875 9.5 C14.65217646 9.29028343 12.31622419 9.08787217 9.86328125 8.40625 C7.78658289 7.78721545 7.78658289 7.78721545 5 9 C5 8.01 5 7.02 5 6 C4.01 6 3.02 6 2 6 C2.66 7.65 3.32 9.3 4 11 C2.35 9.68 0.7 8.36 -1 7 C0.32 6.34 1.64 5.68 3 5 C3 4.34 3 3.68 3 3 C2.01 3 1.02 3 0 3 C0 2.01 0 1.02 0 0 Z " fill="#C2D352" transform="translate(99,110)"/>
<path d="M0 0 C3 1 3 1 4.66918945 3.45166016 C6.38727137 8.03258155 6.37750942 11.92649387 6.29296875 16.7734375 C6.28872391 17.6971817 6.28447906 18.6209259 6.28010559 19.57266235 C6.26338673 22.5070783 6.22574716 25.44079356 6.1875 28.375 C6.17244438 30.37108379 6.15875751 32.36717841 6.14648438 34.36328125 C6.11350545 39.24245522 6.06177014 44.12110903 6 49 C4.515 49.495 4.515 49.495 3 50 C3.23976562 48.48019531 3.23976562 48.48019531 3.484375 46.9296875 C4.30038607 40.35240681 4.2241228 33.74309441 4.25 27.125 C4.270625 25.81402344 4.29125 24.50304687 4.3125 23.15234375 C4.34578166 14.85688996 3.75075641 7.50151281 0 0 Z " fill="#FDFEDC" transform="translate(127,42)"/>
<path d="M0 0 C0.66 0 1.32 0 2 0 C2.02505615 0.70495605 2.0501123 1.40991211 2.07592773 2.13623047 C2.19318042 5.38261447 2.3153115 8.62879817 2.4375 11.875 C2.47681641 12.98359375 2.51613281 14.0921875 2.55664062 15.234375 C2.80984219 21.8565699 3.24101949 28.41596045 4 35 C-0.23071657 30.76928343 -0.13092274 25.31584244 -0.1953125 19.62890625 C-0.18211615 17.27335786 -0.1584092 14.91784842 -0.125 12.5625 C-0.11597656 11.35400391 -0.10695313 10.14550781 -0.09765625 8.90039062 C-0.07420168 5.93338722 -0.04137794 2.96679857 0 0 Z " fill="#C4D35C" transform="translate(85,57)"/>
<path d="M0 0 C1.32 0 2.64 0 4 0 C4 4.95 4 9.9 4 15 C1.45767658 15.08152344 -1.08199202 15.14073716 -3.625 15.1875 C-4.69427734 15.22520508 -4.69427734 15.22520508 -5.78515625 15.26367188 C-10.60214626 15.32996073 -13.81844569 14.65171737 -18 12 C-19.375 9.8125 -19.375 9.8125 -20 8 C-17 9 -17 9 -16 11 C-12.40190311 12.77668017 -9.16667499 13.3373488 -5.1875 13.625 C-3.72376953 13.73714844 -3.72376953 13.73714844 -2.23046875 13.8515625 C-1.49441406 13.90054688 -0.75835937 13.94953125 0 14 C0 13.01 0 12.02 0 11 C0.99 11 1.98 11 3 11 C3 7.7 3 4.4 3 1 C2.01 0.67 1.02 0.34 0 0 Z " fill="#F8FBD0" transform="translate(146,119)"/>
<path d="M0 0 C0.66 0.33 1.32 0.66 2 1 C2 9.25 2 17.5 2 26 C-2 24 -2 24 -3 22 C-2.34 22 -1.68 22 -1 22 C-0.67 14.74 -0.34 7.48 0 0 Z " fill="#F0F5C2" transform="translate(136,158)"/>
<path d="M0 0 C5.75 1.75 5.75 1.75 8 4 C8.16015625 6.34765625 8.16015625 6.34765625 8.0625 9.0625 C8.00821506 10.70756977 7.97968099 12.35416024 8 14 C8.33 14.33 8.66 14.66 9 15 C9.14115161 17.67058851 9.04247107 20.32432238 9 23 C8.67 23 8.34 23 8 23 C7.76216797 21.89205078 7.76216797 21.89205078 7.51953125 20.76171875 C5.81800561 13.36337245 3.38196091 6.79065668 0 0 Z " fill="#C4D552" transform="translate(144,33)"/>
<path d="M0 0 C4.54203043 4.54203043 4.13590744 11.29357272 4.1953125 17.34375 C4.18957501 20.06281907 4.15884186 22.78115777 4.125 25.5 C4.11495069 26.90884781 4.10582829 28.31770255 4.09765625 29.7265625 C4.07419969 33.1512205 4.04137384 36.57551939 4 40 C3.67 40 3.34 40 3 40 C2.98018066 39.22922119 2.96036133 38.45844238 2.93994141 37.66430664 C2.84395546 34.13006151 2.73457671 30.59634883 2.625 27.0625 C2.5940625 25.85013672 2.563125 24.63777344 2.53125 23.38867188 C2.31167925 16.63687134 1.62573459 10.54919909 0 4 C0 2.68 0 1.36 0 0 Z " fill="#CCD96F" transform="translate(128,44)"/>
<path d="M0 0 C0.33 0 0.66 0 1 0 C1 2.64 1 5.28 1 8 C0.34 8 -0.32 8 -1 8 C-1 17.57 -1 27.14 -1 37 C-1.33 37 -1.66 37 -2 37 C-2.04967599 32.69500266 -2.08584945 28.39016007 -2.10986328 24.08496094 C-2.11988105 22.62236624 -2.13349912 21.15979137 -2.15087891 19.69726562 C-2.17531439 17.58718961 -2.18652537 15.47737988 -2.1953125 13.3671875 C-2.20578613 12.09987793 -2.21625977 10.83256836 -2.22705078 9.52685547 C-2.00065167 6.01012267 -1.27223601 3.27083513 0 0 Z " fill="#FBFDE1" transform="translate(90,44)"/>
<path d="M0 0 C0.33 0 0.66 0 1 0 C1 6.6 1 13.2 1 20 C2.65 20 4.3 20 6 20 C4.35830472 22.02054804 2.69088222 24.02043058 1 26 C0.67 26 0.34 26 0 26 C0 17.42 0 8.84 0 0 Z " fill="#FCFED6" transform="translate(61,158)"/>
<path d="M0 0 C0.33 1.32 0.66 2.64 1 4 C0.34 4 -0.32 4 -1 4 C-1.433125 4.9590625 -1.433125 4.9590625 -1.875 5.9375 C-3 8 -3 8 -5 9 C-5.65213292 11.02463255 -5.65213292 11.02463255 -6 13 C-7.98 13.33 -9.96 13.66 -12 14 C-8.34161026 8.88863277 -4.55388068 4.33702922 0 0 Z " fill="#F6F9D5" transform="translate(74,144)"/>
<path d="M0 0 C0.33 0.474375 0.66 0.94875 1 1.4375 C0.01 1.9325 0.01 1.9325 -1 2.4375 C-1.71542969 2.14101563 -2.43085938 1.84453125 -3.16796875 1.5390625 C-6.61213617 0.19940014 -9.62950453 0.01902311 -13.3125 -0.1875 C-15.19388672 -0.29964844 -15.19388672 -0.29964844 -17.11328125 -0.4140625 C-18.06589844 -0.46304687 -19.01851563 -0.51203125 -20 -0.5625 C-20 -0.8925 -20 -1.2225 -20 -1.5625 C-4.62184874 -3.61081933 -4.62184874 -3.61081933 0 0 Z " fill="#C3D25A" transform="translate(134,23.5625)"/>
<path d="M0 0 C0.99 0 1.98 0 3 0 C3.33 0.66 3.66 1.32 4 2 C5.32 1.67 6.64 1.34 8 1 C8 2.32 8 3.64 8 5 C7 6 7 6 4.4375 6.0625 C3.2309375 6.0315625 3.2309375 6.0315625 2 6 C1.34 4.02 0.68 2.04 0 0 Z " fill="#C2D633" transform="translate(101,116)"/>
<path d="M0 0 C2.475 0.495 2.475 0.495 5 1 C5.33 1.99 5.66 2.98 6 4 C5.01 4.33 4.02 4.66 3 5 C3 5.66 3 6.32 3 7 C2.34 7 1.68 7 1 7 C0.67 7.66 0.34 8.32 0 9 C0 6.03 0 3.06 0 0 Z " fill="#C4D648" transform="translate(111,160)"/>
<path d="M0 0 C1.2065625 0.0309375 1.2065625 0.0309375 2.4375 0.0625 C1.50475891 1.19144876 0.56609878 2.31550876 -0.375 3.4375 C-0.89707031 4.06398437 -1.41914062 4.69046875 -1.95703125 5.3359375 C-3.5625 7.0625 -3.5625 7.0625 -6.5625 9.0625 C-6.5625 8.0725 -6.5625 7.0825 -6.5625 6.0625 C-5.9025 6.0625 -5.2425 6.0625 -4.5625 6.0625 C-4.418125 5.258125 -4.27375 4.45375 -4.125 3.625 C-3.347189 0.08163876 -3.347189 0.08163876 0 0 Z " fill="#C5D457" transform="translate(77.5625,137.9375)"/>
<path d="M0 0 C0.33 1.98 0.66 3.96 1 6 C0.01 6.495 0.01 6.495 -1 7 C-2.65 4.69 -4.3 2.38 -6 0 C-3.50907189 -1.24546405 -2.58919267 -0.7767578 0 0 Z " fill="#C2D449" transform="translate(134,148)"/>
<path d="M0 0 C0.33 0.66 0.66 1.32 1 2 C-0.43257963 4.72872311 -1.81722366 6.81722366 -4 9 C-4.99 8.67 -5.98 8.34 -7 8 C-5.71937515 6.2925002 -4.38232443 4.62626404 -3 3 C-2.34 3 -1.68 3 -1 3 C-0.67 2.01 -0.34 1.02 0 0 Z " fill="#C8D760" transform="translate(85,158)"/>
<path d="M0 0 C0.66 0 1.32 0 2 0 C1.01 4.62 0.02 9.24 -1 14 C-1.33 14 -1.66 14 -2 14 C-2.3690205 4.58997722 -2.3690205 4.58997722 0 0 Z " fill="#C6D560" transform="translate(89,42)"/>
<path d="M0 0 C0.33 1.32 0.66 2.64 1 4 C-1.375 5.5625 -1.375 5.5625 -4 7 C-4.66 6.67 -5.32 6.34 -6 6 C-4.02 4.02 -2.04 2.04 0 0 Z " fill="#C8D85D" transform="translate(77,167)"/>
<path d="M0 0 C1.24546405 2.49092811 0.7767578 3.41080733 0 6 C-1.98 6.33 -3.96 6.66 -6 7 C-4.02 4.69 -2.04 2.38 0 0 Z " fill="#FCFEE0" transform="translate(68,151)"/>
<path d="M0 0 C0 3.90838866 -1.50567876 5.11594107 -4 8 C-4.99 7.67 -5.98 7.34 -7 7 C-4.69 4.69 -2.38 2.38 0 0 Z " fill="#F5F8CC" transform="translate(89,128)"/>
<path d="M0 0 C-1.39332574 3.36720387 -2.9789286 4.9859524 -6 7 C-6 3 -6 3 -4.6875 1.25 C-3 0 -3 0 0 0 Z " fill="#FBFDDA" transform="translate(144,105)"/>
<path d="M0 0 C1.32 0 2.64 0 4 0 C5.8125 2.375 5.8125 2.375 7 5 C6.67 5.66 6.34 6.32 6 7 C4.02 4.69 2.04 2.38 0 0 Z " fill="#C3D654" transform="translate(107,126)"/>
</svg>
